<?xml version="1.0" standalone="no"?>
<!DOCTYPE svg PUBLIC "-//W3C//DTD SVG 20010904//EN"
 "http://www.w3.org/TR/2001/REC-SVG-20010904/DTD/svg10.dtd">
<svg version="1.0" xmlns="http://www.w3.org/2000/svg"
 width="580.000000pt" height="386.000000pt" viewBox="0 0 580.000000 386.000000"
 preserveAspectRatio="xMidYMid meet">

<g transform="translate(0.000000,386.000000) scale(0.100000,-0.100000)"
fill="#77A6F7" stroke="none">
<path d="M2810 3308 c-14 -5 -57 -41 -96 -79 l-71 -71 -23 36 c-79 129 -317
83 -347 -66 -4 -22 -12 -27 -48 -33 -56 -8 -119 -54 -145 -104 -34 -68 -25
-168 21 -217 24 -26 20 -29 -46 -38 -94 -13 -105 -17 -105 -37 0 -29 20 -32
120 -16 l91 14 13 -31 c7 -17 27 -45 43 -62 30 -29 31 -33 35 -145 5 -136 29
-207 88 -268 65 -67 137 -97 301 -126 47 -8 102 -21 122 -30 35 -14 37 -18 37
-60 0 -45 0 -45 -35 -45 -33 0 -35 -2 -35 -34 0 -33 0 -33 -54 -39 -112 -11
-192 -68 -292 -208 l-57 -78 -76 -3 -76 -3 -3 -94 c-3 -90 -4 -95 -37 -136
-92 -111 -90 -230 5 -339 l30 -34 0 -146 0 -146 -30 0 c-57 0 -52 -45 9 -87
l33 -22 -84 -3 -83 -3 -8 -35 c-6 -22 -5 -45 2 -62 l11 -28 899 0 c880 0 901
0 911 19 13 25 13 67 0 92 -9 16 -22 19 -93 19 -61 0 -78 3 -67 11 12 9 11 9
-5 2 -11 -4 -338 -9 -727 -11 -600 -2 -712 0 -740 12 -29 13 56 15 737 15 687
0 771 2 788 16 10 9 17 26 15 38 -2 18 -10 23 -45 25 l-43 3 0 165 c0 159 1
167 24 197 73 97 103 211 76 291 -6 19 -31 57 -56 85 -38 42 -44 55 -44 93 0
24 -5 49 -12 56 -7 7 -39 12 -73 12 l-60 0 -125 120 c-136 131 -160 148 -235
165 -43 10 -50 15 -57 43 -8 28 -13 32 -44 32 -34 0 -35 1 -32 36 3 35 6 37
58 53 76 24 109 43 156 89 72 69 109 186 87 271 -7 27 -5 43 10 70 25 49 19
127 -12 153 -29 23 -25 62 7 66 12 2 22 11 23 20 8 142 -59 293 -175 399 -98
90 -231 134 -342 114 -30 -6 -61 -14 -67 -18 -7 -3 7 14 29 39 37 40 62 84 52
93 -1 1 -14 -2 -28 -7z m10 -18 c0 -5 -5 -10 -11 -10 -5 0 -7 5 -4 10 3 6 8
10 11 10 2 0 4 -4 4 -10z m-27 -24 c3 -8 -18 -36 -51 -67 -31 -30 -41 -37 -22
-16 46 51 26 47 -27 -5 -24 -23 -43 -37 -43 -31 0 8 127 132 136 133 1 0 4 -6
7 -14z m-234 -41 c27 -14 64 -52 86 -90 10 -17 16 -15 87 20 75 37 79 37 166
33 75 -3 100 -9 154 -36 118 -58 222 -185 262 -321 27 -93 20 -113 -15 -42
-39 78 -120 166 -194 210 -62 38 -199 82 -249 80 -24 -1 -21 -3 16 -9 133 -23
261 -90 338 -177 41 -48 105 -164 99 -182 -5 -12 -149 34 -234 74 -69 33 -244
136 -294 174 -19 14 -32 21 -28 14 13 -22 212 -150 299 -192 46 -23 115 -52
153 -66 86 -29 65 -31 -90 -5 -214 35 -355 86 -378 137 -6 13 -14 23 -18 23
-7 0 -24 -87 -51 -250 -13 -84 -17 -418 -5 -496 l7 -50 -34 4 c-39 5 -41 9
-62 105 -30 147 -8 416 51 622 13 44 22 82 20 83 -6 7 -54 -159 -77 -263 -28
-132 -31 -379 -6 -470 10 -32 15 -61 13 -64 -3 -2 -37 7 -77 20 l-73 24 -3
170 c-2 94 2 215 8 269 20 173 79 336 152 423 l32 38 -37 -34 c-45 -43 -110
-171 -136 -272 -30 -116 -45 -295 -37 -447 6 -129 5 -132 -13 -122 -33 17 -80
82 -103 140 -14 39 -22 87 -26 163 -4 95 -3 107 12 107 23 0 63 27 71 48 5 13
1 12 -17 -4 -13 -12 -30 -24 -38 -26 -37 -12 -95 45 -115 112 -4 14 -22 37
-40 53 -72 60 -86 184 -28 255 36 44 75 68 125 77 34 7 36 5 43 -24 9 -43 22
-47 17 -5 -2 19 -1 45 2 58 9 35 52 84 95 106 44 23 130 26 170 5z m271 -457
c62 -27 220 -64 334 -79 90 -12 96 -14 96 -36 0 -26 -14 -29 -50 -8 -28 16
-127 20 -149 6 -8 -5 -11 -16 -7 -26 6 -16 16 -17 89 -12 82 6 122 -3 102 -21
-6 -5 -52 -14 -103 -19 -60 -7 -99 -16 -111 -27 -20 -18 -53 -21 -82 -6 -26
14 -226 -6 -256 -26 -21 -13 -23 -13 -23 5 0 25 36 38 145 52 101 13 128 25
99 46 -39 29 -143 8 -209 -42 l-34 -27 5 39 c7 50 33 202 40 231 l5 23 32 -27
c17 -15 52 -35 77 -46z m-686 -37 c3 -5 -18 -11 -47 -15 -28 -4 -68 -9 -87
-13 -19 -3 -32 -2 -28 2 6 7 70 21 150 34 4 0 9 -3 12 -8z m-11 -28 c-7 -2
-19 -2 -25 0 -7 3 -2 5 12 5 14 0 19 -2 13 -5z m-66 -9 c-3 -3 -12 -4 -19 -1
-8 3 -5 6 6 6 11 1 17 -2 13 -5z m-60 -10 c-3 -3 -12 -4 -19 -1 -8 3 -5 6 6 6
11 1 17 -2 13 -5z m1270 -51 c-3 -10 -5 -4 -5 12 0 17 2 24 5 18 2 -7 2 -21 0
-30z m28 -43 c18 -20 18 -20 -13 -9 -18 6 -32 15 -32 20 0 16 26 10 45 -11z
m-82 -37 c-7 -2 -21 -2 -30 0 -10 3 -4 5 12 5 17 0 24 -2 18 -5z m85 -35 c2
-21 -1 -45 -6 -54 -6 -11 -9 -3 -8 27 1 36 -3 45 -24 56 l-25 14 30 -3 c27 -3
30 -7 33 -40z m-107 22 c29 0 23 -18 -13 -40 -23 -15 -43 -19 -65 -15 -43 8
-42 -2 2 -21 38 -16 80 -10 104 14 13 13 17 12 33 -8 26 -32 23 -36 -27 -55
-66 -26 -131 -16 -167 24 -27 31 -35 64 -20 87 11 17 41 23 91 18 24 -2 52 -4
62 -4z m77 -12 c14 -14 16 -48 3 -48 -10 0 -26 19 -34 43 -7 20 13 23 31 5z
m-320 -38 c5 -30 -6 -72 -17 -66 -5 3 -15 -2 -22 -12 -13 -15 -12 -16 4 -3 11
8 17 9 17 2 0 -21 -65 -44 -128 -45 -60 -1 -65 1 -93 32 -30 34 -39 85 -17 98
19 12 211 31 233 24 11 -4 21 -17 23 -30z m45 -30 c3 -21 15 -54 28 -71 l23
-32 -22 -15 c-12 -8 -22 -18 -22 -23 0 -16 24 -9 55 16 l29 24 -28 30 -29 31
38 -20 c47 -24 116 -26 174 -5 38 13 42 13 49 -3 4 -9 7 -45 6 -79 -2 -151
-119 -266 -299 -294 -81 -13 -174 0 -249 34 -82 38 -87 50 -93 229 l-5 153 26
-36 c75 -107 296 -60 296 62 0 51 16 50 23 -1z m-55 -460 l52 0 0 -35 0 -35
-89 0 c-96 0 -103 4 -94 54 5 26 8 28 42 22 20 -3 60 -6 89 -6z m131 -113 c10
-30 16 -34 71 -45 69 -15 112 -46 244 -181 l90 -90 -567 -1 c-312 0 -567 2
-567 6 0 12 97 140 134 178 50 49 129 86 201 93 55 6 55 6 55 39 l0 34 164 0
164 0 11 -33z m552 -384 c1 -67 1 -804 0 -815 -1 -5 -17 -8 -37 -8 -33 0 -36
2 -30 23 29 105 40 226 40 457 0 272 -7 313 -58 338 -64 31 -646 34 -1228 6
l-138 -7 0 25 c0 13 3 28 7 31 3 4 330 7 725 7 l718 0 1 -57z m-88 -15 c43
-29 52 -79 52 -318 0 -199 -10 -318 -36 -440 l-10 -45 -684 0 -685 0 0 398 c0
309 3 399 13 402 30 11 518 23 902 21 382 -1 423 -3 448 -18z m193 -165 c30
-78 5 -182 -66 -273 -20 -25 -20 -25 -20 179 l0 205 35 -34 c19 -18 42 -53 51
-77z m-1566 -155 l0 -193 -25 30 c-58 72 -83 180 -54 238 12 25 73 117 77 117
1 0 2 -87 2 -192z m1557 -524 c3 -8 1 -20 -4 -25 -6 -6 -300 -10 -798 -10
-675 0 -791 2 -803 15 -8 8 -11 19 -8 25 5 8 238 11 807 11 717 0 800 -2 806
-16z m98 -128 c4 -19 4 -44 0 -55 l-6 -21 -896 2 -896 3 -9 26 c-5 16 -5 37 1
52 l11 27 894 0 895 0 6 -34z"/>
<path d="M2764 3238 l-19 -23 23 19 c12 11 22 21 22 23 0 8 -8 2 -26 -19z"/>
<path d="M2444 3221 c-38 -10 -71 -32 -92 -63 -14 -21 -13 -21 14 3 16 15 39
32 51 38 33 17 105 13 146 -8 20 -10 34 -15 31 -10 -18 29 -102 51 -150 40z"/>
<path d="M2449 3080 l-24 -20 33 16 c33 16 79 15 127 -1 14 -4 12 -2 -5 9 -36
22 -103 20 -131 -4z"/>
<path d="M2425 3036 c-38 -17 -60 -41 -80 -89 -26 -62 -15 -128 29 -182 16
-19 16 -18 3 10 -24 50 -29 91 -17 137 20 75 65 109 175 132 11 2 -2 4 -30 4
-27 1 -63 -5 -80 -12z"/>
<path d="M2806 3026 c165 -44 285 -109 404 -220 57 -54 60 -56 31 -19 -100
130 -296 237 -471 257 -47 5 -42 3 36 -18z"/>
<path d="M2160 3002 c-32 -33 -48 -91 -31 -119 10 -16 11 -15 6 7 -8 33 9 78
43 113 34 36 19 35 -18 -1z"/>
<path d="M2301 2832 c-1 -50 20 -96 51 -113 20 -11 20 -9 -5 20 -27 32 -33 49
-40 106 -3 22 -4 19 -6 -13z"/>
<path d="M2656 2808 c-52 -181 -71 -355 -55 -509 5 -57 12 -106 15 -109 3 -2
2 45 -1 105 -8 126 5 280 40 448 12 61 21 113 20 115 -2 2 -10 -21 -19 -50z"/>
<path d="M2346 2551 c-19 -84 -20 -207 -3 -275 12 -46 13 -41 9 76 -3 72 1
155 7 193 16 90 7 94 -13 6z"/>
<path d="M2621 2164 c0 -11 3 -14 6 -6 3 7 2 16 -1 19 -3 4 -6 -2 -5 -13z"/>
<path d="M2800 2499 c-17 -5 -7 -6 30 -3 67 7 107 -7 113 -38 4 -21 4 -20 6 4
1 18 -6 31 -18 38 -23 12 -95 12 -131 -1z"/>
<path d="M2760 2461 c0 -6 -6 -9 -12 -7 -7 1 -10 1 -5 -1 4 -3 7 -10 7 -17 0
-19 47 -37 78 -30 28 7 72 41 72 56 0 5 -10 2 -22 -6 -28 -20 -51 -20 -88 -1
-17 9 -30 11 -30 6z"/>
<path d="M2927 2198 c2 -5 11 -8 19 -8 9 0 12 -5 8 -12 -4 -6 -3 -9 2 -5 5 3
34 1 64 -3 l55 -9 -54 3 c-48 3 -53 2 -36 -10 10 -8 34 -14 53 -14 63 0 95 37
52 60 -22 12 -171 10 -163 -2z"/>
<path d="M2614 1822 c-28 -10 -70 -33 -93 -51 -39 -31 -111 -125 -111 -144 0
-5 32 23 71 62 65 65 107 91 219 139 l25 11 -30 0 c-16 0 -53 -8 -81 -17z"/>
<path d="M3127 1811 c80 -39 163 -101 196 -148 36 -51 34 -19 -2 39 -42 67
-130 122 -213 134 l-43 6 62 -31z"/>
<path d="M2306 1479 c-44 -5 -85 -14 -92 -21 -8 -8 -14 -44 -15 -93 -4 -147 1
-438 7 -433 3 4 8 118 11 255 3 136 7 249 8 251 12 14 166 23 475 28 201 3
381 10 400 14 47 11 -694 10 -794 -1z"/>
<path d="M2270 1400 c-7 -4 -10 -25 -8 -51 2 -34 7 -45 22 -47 10 -2 22 2 27
9 6 11 12 10 27 -4 19 -18 52 -14 52 5 0 7 4 7 13 0 13 -11 654 -16 682 -6 19
8 22 94 3 95 -91 5 -809 4 -818 -1z m503 -10 l318 0 -3 -37 -3 -38 -238 -1
c-130 -1 -240 3 -243 8 -3 4 -11 5 -17 1 -6 -4 -35 -8 -63 -9 -40 -2 -54 2
-59 13 -5 14 -8 14 -20 -3 -14 -17 -16 -18 -28 -3 -12 15 -14 15 -37 -3 -23
-19 -24 -19 -43 1 -19 18 -22 19 -32 4 -17 -23 -35 -7 -35 32 0 40 12 44 115
38 39 -2 213 -4 388 -3z"/>
<path d="M2313 1377 c-3 -5 6 -21 20 -35 l26 -26 26 24 c38 35 32 48 -20 48
-25 -1 -48 -5 -52 -11z"/>
<path d="M2280 1349 c0 -17 4 -28 10 -24 6 3 10 17 10 31 0 13 -4 24 -10 24
-5 0 -10 -14 -10 -31z"/>
<path d="M2420 1357 c0 -34 10 -39 30 -14 21 25 17 37 -11 37 -13 0 -19 -7
-19 -23z"/>
<path d="M2475 1363 c2 -10 4 -25 5 -33 1 -11 3 -12 7 -2 3 9 9 10 17 2 10 -7
13 -3 14 20 1 25 -3 30 -23 30 -17 0 -22 -5 -20 -17z"/>
<path d="M2537 1373 c-13 -12 -7 -41 10 -47 9 -4 23 0 31 8 14 13 17 13 27 -1
7 -10 19 -14 29 -10 20 8 21 37 0 37 -8 0 -12 -4 -9 -10 3 -5 1 -10 -4 -10
-17 0 -13 18 7 29 15 9 15 10 -5 11 -13 0 -23 -5 -23 -12 0 -9 -3 -9 -12 0
-13 13 -41 16 -51 5z m33 -18 c0 -8 -4 -15 -10 -15 -5 0 -10 7 -10 15 0 8 5
15 10 15 6 0 10 -7 10 -15z"/>
<path d="M2661 1348 c0 -18 3 -27 6 -20 2 6 10 9 16 5 18 -12 107 -10 107 2 0
5 4 3 10 -5 7 -12 10 -11 16 5 7 18 8 18 15 -1 6 -15 8 -12 8 14 1 35 -12 42
-28 15 -10 -17 -10 -17 -11 0 0 26 -30 21 -31 -5 l0 -23 -11 23 c-15 30 -32
28 -45 -5 l-11 -28 -1 28 c-1 20 -6 27 -21 27 -16 0 -20 -6 -19 -32z"/>
<path d="M2850 1356 c0 -14 5 -28 10 -31 6 -3 10 0 10 7 0 10 3 9 10 -2 7 -12
10 -11 16 5 7 18 8 18 15 -1 6 -15 8 -12 8 14 1 35 -12 42 -28 15 -10 -17 -10
-17 -11 0 0 9 -7 17 -15 17 -9 0 -15 -9 -15 -24z"/>
<path d="M2930 1356 c0 -14 5 -28 10 -31 6 -4 10 7 10 24 0 17 -4 31 -10 31
-5 0 -10 -11 -10 -24z"/>
<path d="M2960 1355 c0 -25 20 -37 20 -12 0 6 5 4 11 -5 15 -27 29 -21 29 12
0 30 -14 41 -23 18 -4 -10 -6 -10 -6 0 -2 24 -31 12 -31 -13z"/>
<path d="M3037 1373 c-13 -12 -7 -41 9 -47 20 -8 34 1 34 20 0 17 -16 19 -23
2 -4 -8 -6 -7 -6 4 -1 9 7 19 17 21 14 4 13 5 -4 6 -11 0 -24 -2 -27 -6z"/>
<path d="M2310 1232 c-47 -23 -48 -43 -6 -66 32 -17 40 -17 82 -6 58 16 66 36
28 67 -35 27 -57 29 -104 5z m89 -8 c40 -20 36 -35 -15 -52 -33 -11 -44 -11
-71 2 -43 20 -41 30 5 49 47 20 43 20 81 1z"/>
<path d="M2351 1206 c-6 -16 -10 -31 -7 -33 7 -8 28 37 23 50 -3 7 -10 -1 -16
-17z"/>
<path d="M2311 1211 c-7 -5 -10 -14 -7 -20 11 -17 22 -13 22 9 0 11 0 20 -1
20 0 0 -6 -4 -14 -9z"/>
<path d="M2384 1201 c0 -12 6 -17 18 -13 10 2 18 6 18 8 0 2 -8 8 -18 13 -14
7 -18 6 -18 -8z"/>
<path d="M2845 1096 c-32 -32 -40 -69 -25 -107 17 -40 46 -59 93 -59 27 0 45
7 62 25 27 26 33 65 11 65 -21 0 -56 48 -56 76 0 20 -5 24 -30 24 -19 0 -40
-9 -55 -24z m75 -11 c0 -26 39 -75 60 -75 17 0 11 -20 -15 -45 -51 -52 -139
-14 -139 60 0 29 7 43 28 61 37 32 66 32 66 -1z"/>
</g>
</svg>
